<svg xmlns="http://www.w3.org/2000/svg" viewBox="0 0 400 400" width="400" height="400"><defs><linearGradient id="g" x1="0" y1="0" x2="0" y2="1"><stop offset="0" stop-color="#515356"/><stop offset="1" stop-color="#26282b"/></linearGradient></defs><rect width="400" height="400" fill="#ffffff"/><ellipse cx="200" cy="352" rx="60" ry="7" fill="#0f1111" opacity="0.10"/><path d="M168 110 L232 110 L240 330 C240 342 230 348 220 348 L180 348 C170 348 160 342 160 330 Z" fill="url(#g)" stroke="#18191b" stroke-width="3"/><rect x="162" y="70" width="76" height="44" rx="6" fill="#b9bec5" stroke="#6f7276" stroke-width="3"/><path d="M168 70 L168 58" stroke="#6f7276" stroke-width="3"/><path d="M176 70 L176 58" stroke="#6f7276" stroke-width="3"/><path d="M184 70 L184 58" stroke="#6f7276" stroke-width="3"/><path d="M192 70 L192 58" stroke="#6f7276" stroke-width="3"/><path d="M200 70 L200 58" stroke="#6f7276" stroke-width="3"/><path d="M208 70 L208 58" stroke="#6f7276" stroke-width="3"/><path d="M216 70 L216 58" stroke="#6f7276" stroke-width="3"/><path d="M224 70 L224 58" stroke="#6f7276" stroke-width="3"/><path d="M232 70 L232 58" stroke="#6f7276" stroke-width="3"/><rect x="190" y="180" width="20" height="40" rx="8" fill="#1c1d20"/></svg>