<svg xmlns="http://www.w3.org/2000/svg" viewBox="0 0 400 400" width="400" height="400"><defs><linearGradient id="g" x1="0" y1="0" x2="1" y2="0"><stop offset="0" stop-color="#f6f6f5"/><stop offset="1" stop-color="#cfcfce"/></linearGradient></defs><rect width="400" height="400" fill="#ffffff"/><ellipse cx="200" cy="354" rx="70" ry="7" fill="#0f1111" opacity="0.10"/><path d="M160 110 C160 96 170 90 180 90 L220 90 C230 90 240 96 240 110 L250 150 L250 330 C250 342 242 348 230 348 L170 348 C158 348 150 342 150 330 L150 150 Z" fill="url(#g)" stroke="#9f9f9d" stroke-width="3"/><rect x="166" y="54" width="68" height="44" rx="10" fill="#3a3d44" stroke="#202225" stroke-width="3"/><path d="M180 54 C180 26 220 26 220 54" fill="none" stroke="#3a3d44" stroke-width="8"/><rect x="150" y="200" width="100" height="40" fill="#dcdcda" opacity="0.6"/></svg>