<svg xmlns="http://www.w3.org/2000/svg" viewBox="0 0 400 400" width="400" height="400"><defs><linearGradient id="g" x1="0" y1="0" x2="0" y2="1"><stop offset="0" stop-color="#f6f6f4"/><stop offset="1" stop-color="#d7d7d5"/></linearGradient><linearGradient id="s" x1="0" y1="0" x2="0" y2="1"><stop offset="0" stop-color="#ffffff"/><stop offset="1" stop-color="#e3e3e1"/></linearGradient></defs><rect width="400" height="400" fill="#ffffff"/><ellipse cx="206" cy="278" rx="150" ry="11" fill="#0f1111" opacity="0.10"/><path d="M72 244 C64 210 70 190 92 182 C100 172 112 168 124 172 C146 180 170 182 190 172 C206 164 214 156 226 160 C262 192 300 208 330 214 C352 226 360 238 354 244 Z" fill="url(#g)" stroke="#9f9f9d" stroke-width="3" stroke-linejoin="round"/><path d="M72 244 C66 214 72 196 92 188 L116 202 C104 196 102 224 110 244 Z" fill="#c8c8c6" opacity="0.9"/><path d="M300 204 C330 210 356 224 354 244 L296 244 C290 228 292 212 300 204 Z" fill="#f2f2f0" stroke="#a1a19f" stroke-width="2"/><path d="M196 172 L214 162" stroke="#8b8f96" stroke-width="5" stroke-linecap="round"/><path d="M216 183 L234 173" stroke="#8b8f96" stroke-width="5" stroke-linecap="round"/><path d="M236 194 L254 184" stroke="#8b8f96" stroke-width="5" stroke-linecap="round"/><path d="M256 205 L274 195" stroke="#8b8f96" stroke-width="5" stroke-linecap="round"/><path d="M276 216 L294 206" stroke="#8b8f96" stroke-width="5" stroke-linecap="round"/><path d="M204 166 C212 148 226 142 236 150 L240 164" fill="none" stroke="#9f9f9d" stroke-width="3"/><path d="M58 270 C56 246 70 240 96 240 L322 240 C348 240 358 252 354 268 C352 266 344 268 332 268 L80 268 C66 268 59 262 58 270 Z" fill="url(#s)" stroke="#a1a19f" stroke-width="3"/><path d="M66 262 L346 262" stroke="#888887" stroke-width="8" stroke-linecap="round"/></svg>