<svg xmlns="http://www.w3.org/2000/svg" viewBox="0 0 400 400" width="400" height="400"><defs><linearGradient id="g" x1="0" y1="0" x2="0" y2="1"><stop offset="0" stop-color="#f6f6f4"/><stop offset="1" stop-color="#d7d7d5"/></linearGradient></defs><rect width="400" height="400" fill="#ffffff"/><ellipse cx="200" cy="318" rx="140" ry="10" fill="#0f1111" opacity="0.10"/><path d="M92 214 C84 110 140 62 200 62 C260 62 316 110 308 214" fill="none" stroke="#9f9f9d" stroke-width="26" stroke-linecap="round"/><path d="M92 214 C84 110 140 62 200 62 C260 62 316 110 308 214" fill="none" stroke="#f5f5f3" stroke-width="20" stroke-linecap="round"/><path d="M126 110 C150 86 250 86 274 110" fill="none" stroke="#cfd2d6" stroke-width="10" stroke-linecap="round" opacity="0.8"/><ellipse cx="98" cy="236" rx="42" ry="62" fill="url(#g)" stroke="#9f9f9d" stroke-width="3"/><ellipse cx="112" cy="236" rx="22" ry="46" fill="#cfd2d6" opacity="0.85"/><ellipse cx="302" cy="236" rx="42" ry="62" fill="url(#g)" stroke="#9f9f9d" stroke-width="3"/><ellipse cx="288" cy="236" rx="22" ry="46" fill="#cfd2d6" opacity="0.85"/></svg>