<svg xmlns="http://www.w3.org/2000/svg" viewBox="0 0 400 400" width="400" height="400"><defs><linearGradient id="g" x1="0" y1="0" x2="0" y2="1"><stop offset="0" stop-color="#515356"/><stop offset="1" stop-color="#26282b"/></linearGradient></defs><rect width="400" height="400" fill="#ffffff"/><ellipse cx="200" cy="300" rx="140" ry="10" fill="#0f1111" opacity="0.10"/><rect x="70" y="150" width="260" height="130" rx="65" fill="url(#g)" stroke="#18191b" stroke-width="3"/><rect x="96" y="164" width="208" height="102" rx="51" fill="#25262a"/><circle cx="112.0" cy="182" r="2.6" fill="#1a1b1d"/><circle cx="124.2" cy="182" r="2.6" fill="#1a1b1d"/><circle cx="136.4" cy="182" r="2.6" fill="#1a1b1d"/><circle cx="148.6" cy="182" r="2.6" fill="#1a1b1d"/><circle cx="160.8" cy="182" r="2.6" fill="#1a1b1d"/><circle cx="173.0" cy="182" r="2.6" fill="#1a1b1d"/><circle cx="185.2" cy="182" r="2.6" fill="#1a1b1d"/><circle cx="197.4" cy="182" r="2.6" fill="#1a1b1d"/><circle cx="209.6" cy="182" r="2.6" fill="#1a1b1d"/><circle cx="221.8" cy="182" r="2.6" fill="#1a1b1d"/><circle cx="234.0" cy="182" r="2.6" fill="#1a1b1d"/><circle cx="246.2" cy="182" r="2.6" fill="#1a1b1d"/><circle cx="258.4" cy="182" r="2.6" fill="#1a1b1d"/><circle cx="270.6" cy="182" r="2.6" fill="#1a1b1d"/><circle cx="282.8" cy="182" r="2.6" fill="#1a1b1d"/><circle cx="295.0" cy="182" r="2.6" fill="#1a1b1d"/><circle cx="112.0" cy="198" r="2.6" fill="#1a1b1d"/><circle cx="124.2" cy="198" r="2.6" fill="#1a1b1d"/><circle cx="136.4" cy="198" r="2.6" fill="#1a1b1d"/><circle cx="148.6" cy="198" r="2.6" fill="#1a1b1d"/><circle cx="160.8" cy="198" r="2.6" fill="#1a1b1d"/><circle cx="173.0" cy="198" r="2.6" fill="#1a1b1d"/><circle cx="185.2" cy="198" r="2.6" fill="#1a1b1d"/><circle cx="197.4" cy="198" r="2.6" fill="#1a1b1d"/><circle cx="209.6" cy="198" r="2.6" fill="#1a1b1d"/><circle cx="221.8" cy="198" r="2.6" fill="#1a1b1d"/><circle cx="234.0" cy="198" r="2.6" fill="#1a1b1d"/><circle cx="246.2" cy="198" r="2.6" fill="#1a1b1d"/><circle cx="258.4" cy="198" r="2.6" fill="#1a1b1d"/><circle cx="270.6" cy="198" r="2.6" fill="#1a1b1d"/><circle cx="282.8" cy="198" r="2.6" fill="#1a1b1d"/><circle cx="295.0" cy="198" r="2.6" fill="#1a1b1d"/><circle cx="112.0" cy="214" r="2.6" fill="#1a1b1d"/><circle cx="124.2" cy="214" r="2.6" fill="#1a1b1d"/><circle cx="136.4" cy="214" r="2.6" fill="#1a1b1d"/><circle cx="148.6" cy="214" r="2.6" fill="#1a1b1d"/><circle cx="160.8" cy="214" r="2.6" fill="#1a1b1d"/><circle cx="173.0" cy="214" r="2.6" fill="#1a1b1d"/><circle cx="185.2" cy="214" r="2.6" fill="#1a1b1d"/><circle cx="197.4" cy="214" r="2.6" fill="#1a1b1d"/><circle cx="209.6" cy="214" r="2.6" fill="#1a1b1d"/><circle cx="221.8" cy="214" r="2.6" fill="#1a1b1d"/><circle cx="234.0" cy="214" r="2.6" fill="#1a1b1d"/><circle cx="246.2" cy="214" r="2.6" fill="#1a1b1d"/><circle cx="258.4" cy="214" r="2.6" fill="#1a1b1d"/><circle cx="270.6" cy="214" r="2.6" fill="#1a1b1d"/><circle cx="282.8" cy="214" r="2.6" fill="#1a1b1d"/><circle cx="295.0" cy="214" r="2.6" fill="#1a1b1d"/><circle cx="112.0" cy="230" r="2.6" fill="#1a1b1d"/><circle cx="124.2" cy="230" r="2.6" fill="#1a1b1d"/><circle cx="136.4" cy="230" r="2.6" fill="#1a1b1d"/><circle cx="148.6" cy="230" r="2.6" fill="#1a1b1d"/><circle cx="160.8" cy="230" r="2.6" fill="#1a1b1d"/><circle cx="173.0" cy="230" r="2.6" fill="#1a1b1d"/><circle cx="185.2" cy="230" r="2.6" fill="#1a1b1d"/><circle cx="197.4" cy="230" r="2.6" fill="#1a1b1d"/><circle cx="209.6" cy="230" r="2.6" fill="#1a1b1d"/><circle cx="221.8" cy="230" r="2.6" fill="#1a1b1d"/><circle cx="234.0" cy="230" r="2.6" fill="#1a1b1d"/><circle cx="246.2" cy="230" r="2.6" fill="#1a1b1d"/><circle cx="258.4" cy="230" r="2.6" fill="#1a1b1d"/><circle cx="270.6" cy="230" r="2.6" fill="#1a1b1d"/><circle cx="282.8" cy="230" r="2.6" fill="#1a1b1d"/><circle cx="295.0" cy="230" r="2.6" fill="#1a1b1d"/><circle cx="112.0" cy="246" r="2.6" fill="#1a1b1d"/><circle cx="124.2" cy="246" r="2.6" fill="#1a1b1d"/><circle cx="136.4" cy="246" r="2.6" fill="#1a1b1d"/><circle cx="148.6" cy="246" r="2.6" fill="#1a1b1d"/><circle cx="160.8" cy="246" r="2.6" fill="#1a1b1d"/><circle cx="173.0" cy="246" r="2.6" fill="#1a1b1d"/><circle cx="185.2" cy="246" r="2.6" fill="#1a1b1d"/><circle cx="197.4" cy="246" r="2.6" fill="#1a1b1d"/><circle cx="209.6" cy="246" r="2.6" fill="#1a1b1d"/><circle cx="221.8" cy="246" r="2.6" fill="#1a1b1d"/><circle cx="234.0" cy="246" r="2.6" fill="#1a1b1d"/><circle cx="246.2" cy="246" r="2.6" fill="#1a1b1d"/><circle cx="258.4" cy="246" r="2.6" fill="#1a1b1d"/><circle cx="270.6" cy="246" r="2.6" fill="#1a1b1d"/><circle cx="282.8" cy="246" r="2.6" fill="#1a1b1d"/><circle cx="295.0" cy="246" r="2.6" fill="#1a1b1d"/><rect x="172" y="136" width="56" height="18" rx="6" fill="#2b2d31"/><circle cx="80" cy="215" r="6" fill="#2b2d31"/></svg>