<svg xmlns="http://www.w3.org/2000/svg" viewBox="0 0 400 400" width="400" height="400"><defs></defs><rect width="400" height="400" fill="#ffffff"/><ellipse cx="200" cy="318" rx="130" ry="9" fill="#0f1111" opacity="0.10"/><ellipse cx="200" cy="204" rx="100" ry="70" fill="none" stroke="#18191b" stroke-width="14"/><ellipse cx="200" cy="204" rx="100" ry="70" fill="none" stroke="#2b2d31" stroke-width="10"/><ellipse cx="200" cy="204" rx="88" ry="58" fill="none" stroke="#18191b" stroke-width="14"/><ellipse cx="200" cy="204" rx="88" ry="58" fill="none" stroke="#2b2d31" stroke-width="10"/><ellipse cx="200" cy="204" rx="76" ry="46" fill="none" stroke="#18191b" stroke-width="14"/><ellipse cx="200" cy="204" rx="76" ry="46" fill="none" stroke="#2b2d31" stroke-width="10"/><path d="M280 240 C300 270 316 286 330 300" stroke="#2b2d31" stroke-width="10" fill="none"/><rect x="318" y="290" width="30" height="46" rx="8" fill="#27282c" stroke="#18191b" stroke-width="3" transform="rotate(-40 333 313)"/><path d="M120 170 C100 140 86 120 70 104" stroke="#2b2d31" stroke-width="10" fill="none"/><rect x="48" y="70" width="30" height="46" rx="8" fill="#27282c" stroke="#18191b" stroke-width="3" transform="rotate(-40 63 93)"/><rect x="54" y="52" width="18" height="22" rx="6" fill="#b9bec5" transform="rotate(-40 63 63)"/></svg>